<svg width="437" height="444" viewBox="0 0 437 444" fill="none" xmlns="http://www.w3.org/2000/svg">
<g filter="url(#filter0_di_484_2820)">
<path d="M-63.9536 221.648C-77.0399 125.049 -9.05802 32.3634 86.8324 14.8224C224.869 -10.4281 353.272 81.6045 372.11 220.661L374.74 240.073C387.459 333.959 322.219 423.888 229.022 440.936C87.1388 466.891 -43.5772 372.061 -62.9402 229.129L-63.9536 221.648Z" fill="url(#paint0_linear_484_2820)" shape-rendering="crispEdges"/>
</g>
<path opacity="0.88" d="M148.703 255.828C159.43 165.193 241.57 100.643 332.107 112.176L373.709 117.475C412.877 122.464 440.867 158.296 436.227 197.506L432.539 228.667C421.446 322.392 336.557 388.704 242.934 376.778C183.876 369.255 141.705 314.951 148.703 255.828Z" fill="url(#paint1_linear_484_2820)"/>
<rect width="346.866" height="204.312" rx="102.156" transform="matrix(0.947612 -0.319423 0.29888 0.954291 -7.69141 208.13)" fill="url(#paint2_radial_484_2820)"/>
<g filter="url(#filter1_f_484_2820)">
<rect x="-24" y="18.6738" width="259" height="280.107" rx="129.5" fill="url(#paint3_radial_484_2820)"/>
</g>
<defs>
<filter id="filter0_di_484_2820" x="-153.566" y="-31.3472" width="581.891" height="574.561" filterUnits="userSpaceOnUse" color-interpolation-filters="sRGB">
<feFlood flood-opacity="0" result="BackgroundImageFix"/>
<feColorMatrix in="SourceAlpha" type="matrix" values="0 0 0 0 0 0 0 0 0 0 0 0 0 0 0 0 0 0 127 0" result="hardAlpha"/>
<feOffset dx="-18" dy="28"/>
<feGaussianBlur stdDeviation="35"/>
<feComposite in2="hardAlpha" operator="out"/>
<feColorMatrix type="matrix" values="0 0 0 0 0.356863 0 0 0 0 0.129412 0 0 0 0 0.713726 0 0 0 0.26 0"/>
<feBlend mode="normal" in2="BackgroundImageFix" result="effect1_dropShadow_484_2820"/>
<feBlend mode="normal" in="SourceGraphic" in2="effect1_dropShadow_484_2820" result="shape"/>
<feColorMatrix in="SourceAlpha" type="matrix" values="0 0 0 0 0 0 0 0 0 0 0 0 0 0 0 0 0 0 127 0" result="hardAlpha"/>
<feOffset dx="18" dy="-24"/>
<feGaussianBlur stdDeviation="24"/>
<feComposite in2="hardAlpha" operator="arithmetic" k2="-1" k3="1"/>
<feColorMatrix type="matrix" values="0 0 0 0 1 0 0 0 0 1 0 0 0 0 1 0 0 0 0.14 0"/>
<feBlend mode="normal" in2="shape" result="effect2_innerShadow_484_2820"/>
</filter>
<filter id="filter1_f_484_2820" x="-52" y="-9.32617" width="315" height="336.107" filterUnits="userSpaceOnUse" color-interpolation-filters="sRGB">
<feFlood flood-opacity="0" result="BackgroundImageFix"/>
<feBlend mode="normal" in="SourceGraphic" in2="BackgroundImageFix" result="shape"/>
<feGaussianBlur stdDeviation="14" result="effect1_foregroundBlur_484_2820"/>
</filter>
<linearGradient id="paint0_linear_484_2820" x1="-49.2532" y1="8.13027" x2="376.467" y2="431.489" gradientUnits="userSpaceOnUse">
<stop stop-color="#4C1D95" stop-opacity="0.88"/>
<stop offset="0.42" stop-color="#7C3AED" stop-opacity="0.82"/>
<stop offset="1" stop-color="#C084FC" stop-opacity="0.55"/>
</linearGradient>
<linearGradient id="paint1_linear_484_2820" x1="353.401" y1="89.9019" x2="228.81" y2="400.398" gradientUnits="userSpaceOnUse">
<stop stop-color="#0F172A" stop-opacity="0.88"/>
<stop offset="0.5" stop-color="#5B21B6" stop-opacity="0.72"/>
<stop offset="1" stop-color="#A78BFA" stop-opacity="0.45"/>
</linearGradient>
<radialGradient id="paint2_radial_484_2820" cx="0" cy="0" r="1" gradientUnits="userSpaceOnUse" gradientTransform="translate(121.403 71.5093) scale(277.493 143.019)">
<stop stop-color="white" stop-opacity="0.45"/>
<stop offset="0.62" stop-color="white" stop-opacity="0"/>
</radialGradient>
<radialGradient id="paint3_radial_484_2820" cx="0" cy="0" r="1" gradientUnits="userSpaceOnUse" gradientTransform="translate(105.5 158.727) scale(166.229 223.382)">
<stop stop-color="#C084FC" stop-opacity="0.38"/>
<stop offset="0.68" stop-color="#C084FC" stop-opacity="0"/>
</radialGradient>
</defs>
</svg>
