<svg width="39" height="39" viewBox="0 0 39 39" fill="none" xmlns="http://www.w3.org/2000/svg">
<path d="M19.0076 3.16797C16.9275 3.16797 14.8678 3.57767 12.946 4.37369C11.0243 5.1697 9.27813 6.33644 7.80728 7.80728C4.83678 10.7778 3.16797 14.8066 3.16797 19.0076C3.16797 26.0087 7.71394 31.9485 14.0023 34.0552C14.7942 34.1819 15.0477 33.6909 15.0477 33.2632V30.5863C10.6601 31.5367 9.72557 28.4638 9.72557 28.4638C8.99694 26.6264 7.96737 26.1354 7.96737 26.1354C6.52597 25.1533 8.07825 25.185 8.07825 25.185C9.66221 25.2959 10.5017 26.8165 10.5017 26.8165C11.8798 29.2241 14.2082 28.5113 15.111 28.1312C15.2536 27.1016 15.6654 26.4047 16.1089 26.0087C12.5925 25.6127 8.90191 24.2505 8.90191 18.2156C8.90191 16.4574 9.50381 15.0477 10.5334 13.9231C10.375 13.5271 9.8206 11.8798 10.6918 9.74141C10.6918 9.74141 12.0223 9.31374 15.0477 11.357C16.299 11.0086 17.6612 10.8343 19.0076 10.8343C20.3539 10.8343 21.7161 11.0086 22.9675 11.357C25.9928 9.31374 27.3234 9.74141 27.3234 9.74141C28.1945 11.8798 27.6402 13.5271 27.4818 13.9231C28.5113 15.0477 29.1132 16.4574 29.1132 18.2156C29.1132 24.2663 25.4068 25.5968 21.8745 25.9928C22.4448 26.4839 22.9675 27.4501 22.9675 28.9232V33.2632C22.9675 33.6909 23.2209 34.1978 24.0287 34.0552C30.3171 31.9327 34.8472 26.0087 34.8472 19.0076C34.8472 16.9275 34.4375 14.8678 33.6415 12.946C32.8454 11.0243 31.6787 9.27812 30.2079 7.80728C28.737 6.33644 26.9909 5.1697 25.0691 4.37369C23.1474 3.57767 21.0877 3.16797 19.0076 3.16797Z" fill="black"/>
</svg>
