<svg width="120" height="120" viewBox="0 0 120 120" fill="none" xmlns="http://www.w3.org/2000/svg">
<foreignObject x="0" y="0" width="120" height="120"><div xmlns="http://www.w3.org/1999/xhtml" style="backdrop-filter:blur(5px);clip-path:url(#bgblur_0_52_1278_clip_path);height:100%;width:100%"></div></foreignObject><g filter="url(#filter0_di_52_1278)" data-figma-bg-blur-radius="10">
<mask id="path-1-inside-1_52_1278" fill="white">
<path d="M28 36C28 26.0589 36.0589 18 46 18H74C83.9411 18 92 26.0589 92 36V64C92 73.9411 83.9411 82 74 82H46C36.0589 82 28 73.9411 28 64V36Z"/>
</mask>
<path d="M28 36C28 26.0589 36.0589 18 46 18H74C83.9411 18 92 26.0589 92 36V64C92 73.9411 83.9411 82 74 82H46C36.0589 82 28 73.9411 28 64V36Z" fill="url(#paint0_linear_52_1278)" shape-rendering="crispEdges"/>
<path d="M46 18V19H74V18V17H46V18ZM92 36H91V64H92H93V36H92ZM74 82V81H46V82V83H74V82ZM28 64H29V36H28H27V64H28ZM46 82V81C36.6112 81 29 73.3888 29 64H28H27C27 74.4934 35.5066 83 46 83V82ZM92 64H91C91 73.3888 83.3888 81 74 81V82V83C84.4934 83 93 74.4934 93 64H92ZM74 18V19C83.3888 19 91 26.6112 91 36H92H93C93 25.5066 84.4934 17 74 17V18ZM46 18V17C35.5066 17 27 25.5066 27 36H28H29C29 26.6112 36.6112 19 46 19V18Z" fill="white" fill-opacity="0.95" mask="url(#path-1-inside-1_52_1278)"/>
<mask id="path-3-inside-2_52_1278" fill="white">
<path d="M41 41C41 37.6863 43.6863 35 47 35H79C82.3137 35 85 37.6863 85 41V63C85 66.3137 82.3137 69 79 69H47C43.6863 69 41 66.3137 41 63V41Z"/>
</mask>
<g filter="url(#filter1_i_52_1278)">
<path d="M41 41C41 37.6863 43.6863 35 47 35H79C82.3137 35 85 37.6863 85 41V63C85 66.3137 82.3137 69 79 69H47C43.6863 69 41 66.3137 41 63V41Z" fill="url(#paint1_linear_52_1278)"/>
</g>
<path d="M47 35V37H79V35V33H47V35ZM85 41H83V63H85H87V41H85ZM79 69V67H47V69V71H79V69ZM41 63H43V41H41H39V63H41ZM47 69V67C44.7909 67 43 65.2091 43 63H41H39C39 67.4183 42.5817 71 47 71V69ZM85 63H83C83 65.2091 81.2091 67 79 67V69V71C83.4183 71 87 67.4183 87 63H85ZM79 35V37C81.2091 37 83 38.7909 83 41H85H87C87 36.5817 83.4183 33 79 33V35ZM47 35V33C42.5817 33 39 36.5817 39 41H41H43C43 38.7909 44.7909 37 47 37V35Z" fill="#94A3B8" mask="url(#path-3-inside-2_52_1278)"/>
<rect x="51" y="42" width="18" height="18" rx="1" fill="#7C3AED"/>
</g>
<defs>
<filter id="filter0_di_52_1278" x="0" y="0" width="120" height="120" filterUnits="userSpaceOnUse" color-interpolation-filters="sRGB">
<feFlood flood-opacity="0" result="BackgroundImageFix"/>
<feColorMatrix in="SourceAlpha" type="matrix" values="0 0 0 0 0 0 0 0 0 0 0 0 0 0 0 0 0 0 127 0" result="hardAlpha"/>
<feOffset dy="10"/>
<feGaussianBlur stdDeviation="14"/>
<feComposite in2="hardAlpha" operator="out"/>
<feColorMatrix type="matrix" values="0 0 0 0 0.356863 0 0 0 0 0.129412 0 0 0 0 0.713726 0 0 0 0.12 0"/>
<feBlend mode="normal" in2="BackgroundImageFix" result="effect1_dropShadow_52_1278"/>
<feBlend mode="normal" in="SourceGraphic" in2="effect1_dropShadow_52_1278" result="shape"/>
<feColorMatrix in="SourceAlpha" type="matrix" values="0 0 0 0 0 0 0 0 0 0 0 0 0 0 0 0 0 0 127 0" result="hardAlpha"/>
<feMorphology radius="1" operator="erode" in="SourceAlpha" result="effect2_innerShadow_52_1278"/>
<feOffset dy="1"/>
<feComposite in2="hardAlpha" operator="arithmetic" k2="-1" k3="1"/>
<feColorMatrix type="matrix" values="0 0 0 0 1 0 0 0 0 1 0 0 0 0 1 0 0 0 0.95 0"/>
<feBlend mode="normal" in2="shape" result="effect2_innerShadow_52_1278"/>
</filter>
<clipPath id="bgblur_0_52_1278_clip_path" transform="translate(0 0)"><path d="M28 36C28 26.0589 36.0589 18 46 18H74C83.9411 18 92 26.0589 92 36V64C92 73.9411 83.9411 82 74 82H46C36.0589 82 28 73.9411 28 64V36Z"/>
</clipPath><filter id="filter1_i_52_1278" x="41" y="33" width="44" height="36" filterUnits="userSpaceOnUse" color-interpolation-filters="sRGB">
<feFlood flood-opacity="0" result="BackgroundImageFix"/>
<feBlend mode="normal" in="SourceGraphic" in2="BackgroundImageFix" result="shape"/>
<feColorMatrix in="SourceAlpha" type="matrix" values="0 0 0 0 0 0 0 0 0 0 0 0 0 0 0 0 0 0 127 0" result="hardAlpha"/>
<feMorphology radius="2" operator="erode" in="SourceAlpha" result="effect1_innerShadow_52_1278"/>
<feOffset dy="-7"/>
<feComposite in2="hardAlpha" operator="arithmetic" k2="-1" k3="1"/>
<feColorMatrix type="matrix" values="0 0 0 0 0.0588235 0 0 0 0 0.0901961 0 0 0 0 0.164706 0 0 0 0.05 0"/>
<feBlend mode="normal" in2="shape" result="effect1_innerShadow_52_1278"/>
</filter>
<linearGradient id="paint0_linear_52_1278" x1="34.4372" y1="13.4926" x2="85.5628" y2="86.5074" gradientUnits="userSpaceOnUse">
<stop stop-color="white" stop-opacity="0.82"/>
<stop offset="1" stop-color="#EDE9FE" stop-opacity="0.65"/>
</linearGradient>
<linearGradient id="paint1_linear_52_1278" x1="63" y1="35" x2="63" y2="69" gradientUnits="userSpaceOnUse">
<stop stop-color="#F8FAFC"/>
<stop offset="1" stop-color="#CBD5E1"/>
</linearGradient>
</defs>
</svg>
