<svg width="120" height="120" viewBox="0 0 120 120" fill="none" xmlns="http://www.w3.org/2000/svg">
<foreignObject x="0" y="0" width="120" height="120"><div xmlns="http://www.w3.org/1999/xhtml" style="backdrop-filter:blur(5px);clip-path:url(#bgblur_0_52_1250_clip_path);height:100%;width:100%"></div></foreignObject><g filter="url(#filter0_di_52_1250)" data-figma-bg-blur-radius="10">
<mask id="path-1-inside-1_52_1250" fill="white">
<path d="M28 36C28 26.0589 36.0589 18 46 18H74C83.9411 18 92 26.0589 92 36V64C92 73.9411 83.9411 82 74 82H46C36.0589 82 28 73.9411 28 64V36Z"/>
</mask>
<path d="M28 36C28 26.0589 36.0589 18 46 18H74C83.9411 18 92 26.0589 92 36V64C92 73.9411 83.9411 82 74 82H46C36.0589 82 28 73.9411 28 64V36Z" fill="url(#paint0_linear_52_1250)" shape-rendering="crispEdges"/>
<path d="M46 18V19H74V18V17H46V18ZM92 36H91V64H92H93V36H92ZM74 82V81H46V82V83H74V82ZM28 64H29V36H28H27V64H28ZM46 82V81C36.6112 81 29 73.3888 29 64H28H27C27 74.4934 35.5066 83 46 83V82ZM92 64H91C91 73.3888 83.3888 81 74 81V82V83C84.4934 83 93 74.4934 93 64H92ZM74 18V19C83.3888 19 91 26.6112 91 36H92H93C93 25.5066 84.4934 17 74 17V18ZM46 18V17C35.5066 17 27 25.5066 27 36H28H29C29 26.6112 36.6112 19 46 19V18Z" fill="white" fill-opacity="0.95" mask="url(#path-1-inside-1_52_1250)"/>
<mask id="path-3-inside-2_52_1250" fill="white">
<path d="M45 37C45 34.7909 46.7909 33 49 33H73C75.2091 33 77 34.7909 77 37V69C77 71.2091 75.2091 73 73 73H49C46.7909 73 45 71.2091 45 69V37Z"/>
</mask>
<path d="M45 37C45 34.7909 46.7909 33 49 33H73C75.2091 33 77 34.7909 77 37V69C77 71.2091 75.2091 73 73 73H49C46.7909 73 45 71.2091 45 69V37Z" fill="url(#paint1_linear_52_1250)"/>
<path d="M49 33V34H73V33V32H49V33ZM77 37H76V69H77H78V37H77ZM73 73V72H49V73V74H73V73ZM45 69H46V37H45H44V69H45ZM49 73V72C47.3431 72 46 70.6569 46 69H45H44C44 71.7614 46.2386 74 49 74V73ZM77 69H76C76 70.6569 74.6569 72 73 72V73V74C75.7614 74 78 71.7614 78 69H77ZM73 33V34C74.6569 34 76 35.3431 76 37H77H78C78 34.2386 75.7614 32 73 32V33ZM49 33V32C46.2386 32 44 34.2386 44 37H45H46C46 35.3431 47.3431 34 49 34V33Z" fill="#CBD5E1" mask="url(#path-3-inside-2_52_1250)"/>
<mask id="mask0_52_1250" style="mask-type:alpha" maskUnits="userSpaceOnUse" x="59" y="45" width="22" height="26">
<path d="M70 45L81 51.5V64.5L70 71L59 64.5V51.5L70 45Z" fill="black"/>
</mask>
<g mask="url(#mask0_52_1250)">
<g filter="url(#filter1_d_52_1250)">
<path d="M59 49C59 46.7909 60.7909 45 63 45H77C79.2091 45 81 46.7909 81 49V61C81 66.5228 76.5228 71 71 71H69C63.4772 71 59 66.5228 59 61V49Z" fill="url(#paint2_linear_52_1250)"/>
</g>
</g>
</g>
<defs>
<filter id="filter0_di_52_1250" x="0" y="0" width="120" height="120" filterUnits="userSpaceOnUse" color-interpolation-filters="sRGB">
<feFlood flood-opacity="0" result="BackgroundImageFix"/>
<feColorMatrix in="SourceAlpha" type="matrix" values="0 0 0 0 0 0 0 0 0 0 0 0 0 0 0 0 0 0 127 0" result="hardAlpha"/>
<feOffset dy="10"/>
<feGaussianBlur stdDeviation="14"/>
<feComposite in2="hardAlpha" operator="out"/>
<feColorMatrix type="matrix" values="0 0 0 0 0.356863 0 0 0 0 0.129412 0 0 0 0 0.713726 0 0 0 0.12 0"/>
<feBlend mode="normal" in2="BackgroundImageFix" result="effect1_dropShadow_52_1250"/>
<feBlend mode="normal" in="SourceGraphic" in2="effect1_dropShadow_52_1250" result="shape"/>
<feColorMatrix in="SourceAlpha" type="matrix" values="0 0 0 0 0 0 0 0 0 0 0 0 0 0 0 0 0 0 127 0" result="hardAlpha"/>
<feMorphology radius="1" operator="erode" in="SourceAlpha" result="effect2_innerShadow_52_1250"/>
<feOffset dy="1"/>
<feComposite in2="hardAlpha" operator="arithmetic" k2="-1" k3="1"/>
<feColorMatrix type="matrix" values="0 0 0 0 1 0 0 0 0 1 0 0 0 0 1 0 0 0 0.95 0"/>
<feBlend mode="normal" in2="shape" result="effect2_innerShadow_52_1250"/>
</filter>
<clipPath id="bgblur_0_52_1250_clip_path" transform="translate(0 0)"><path d="M28 36C28 26.0589 36.0589 18 46 18H74C83.9411 18 92 26.0589 92 36V64C92 73.9411 83.9411 82 74 82H46C36.0589 82 28 73.9411 28 64V36Z"/>
</clipPath><filter id="filter1_d_52_1250" x="47" y="37" width="46" height="50" filterUnits="userSpaceOnUse" color-interpolation-filters="sRGB">
<feFlood flood-opacity="0" result="BackgroundImageFix"/>
<feColorMatrix in="SourceAlpha" type="matrix" values="0 0 0 0 0 0 0 0 0 0 0 0 0 0 0 0 0 0 127 0" result="hardAlpha"/>
<feOffset dy="4"/>
<feGaussianBlur stdDeviation="6"/>
<feComposite in2="hardAlpha" operator="out"/>
<feColorMatrix type="matrix" values="0 0 0 0 0.356863 0 0 0 0 0.129412 0 0 0 0 0.713726 0 0 0 0.35 0"/>
<feBlend mode="normal" in2="BackgroundImageFix" result="effect1_dropShadow_52_1250"/>
<feBlend mode="normal" in="SourceGraphic" in2="effect1_dropShadow_52_1250" result="shape"/>
</filter>
<linearGradient id="paint0_linear_52_1250" x1="34.4372" y1="13.4926" x2="85.5628" y2="86.5074" gradientUnits="userSpaceOnUse">
<stop stop-color="white" stop-opacity="0.82"/>
<stop offset="1" stop-color="#EDE9FE" stop-opacity="0.65"/>
</linearGradient>
<linearGradient id="paint1_linear_52_1250" x1="61" y1="33" x2="61" y2="73" gradientUnits="userSpaceOnUse">
<stop stop-color="white"/>
<stop offset="1" stop-color="#E5E7EB"/>
</linearGradient>
<linearGradient id="paint2_linear_52_1250" x1="70" y1="45" x2="70" y2="71" gradientUnits="userSpaceOnUse">
<stop stop-color="#A78BFA"/>
<stop offset="1" stop-color="#5B21B6"/>
</linearGradient>
</defs>
</svg>
