<svg width="120" height="120" viewBox="0 0 120 120" fill="none" xmlns="http://www.w3.org/2000/svg">
<foreignObject x="0" y="0" width="120" height="120"><div xmlns="http://www.w3.org/1999/xhtml" style="backdrop-filter:blur(5px);clip-path:url(#bgblur_0_52_1240_clip_path);height:100%;width:100%"></div></foreignObject><g filter="url(#filter0_di_52_1240)" data-figma-bg-blur-radius="10">
<mask id="path-1-inside-1_52_1240" fill="white">
<path d="M28 36C28 26.0589 36.0589 18 46 18H74C83.9411 18 92 26.0589 92 36V64C92 73.9411 83.9411 82 74 82H46C36.0589 82 28 73.9411 28 64V36Z"/>
</mask>
<path d="M28 36C28 26.0589 36.0589 18 46 18H74C83.9411 18 92 26.0589 92 36V64C92 73.9411 83.9411 82 74 82H46C36.0589 82 28 73.9411 28 64V36Z" fill="url(#paint0_linear_52_1240)" shape-rendering="crispEdges"/>
<path d="M46 18V19H74V18V17H46V18ZM92 36H91V64H92H93V36H92ZM74 82V81H46V82V83H74V82ZM28 64H29V36H28H27V64H28ZM46 82V81C36.6112 81 29 73.3888 29 64H28H27C27 74.4934 35.5066 83 46 83V82ZM92 64H91C91 73.3888 83.3888 81 74 81V82V83C84.4934 83 93 74.4934 93 64H92ZM74 18V19C83.3888 19 91 26.6112 91 36H92H93C93 25.5066 84.4934 17 74 17V18ZM46 18V17C35.5066 17 27 25.5066 27 36H28H29C29 26.6112 36.6112 19 46 19V18Z" fill="white" fill-opacity="0.95" mask="url(#path-1-inside-1_52_1240)"/>
<mask id="path-3-inside-2_52_1240" fill="white">
<path d="M41 43C41 39.6863 43.6863 37 47 37H77C80.3137 37 83 39.6863 83 43V59C83 62.3137 80.3137 65 77 65H47C43.6863 65 41 62.3137 41 59V43Z"/>
</mask>
<path d="M41 43C41 39.6863 43.6863 37 47 37H77C80.3137 37 83 39.6863 83 43V59C83 62.3137 80.3137 65 77 65H47C43.6863 65 41 62.3137 41 59V43Z" fill="url(#paint1_linear_52_1240)"/>
<path d="M47 37V38H77V37V36H47V37ZM83 43H82V59H83H84V43H83ZM77 65V64H47V65V66H77V65ZM41 59H42V43H41H40V59H41ZM47 65V64C44.2386 64 42 61.7614 42 59H41H40C40 62.866 43.134 66 47 66V65ZM83 59H82C82 61.7614 79.7614 64 77 64V65V66C80.866 66 84 62.866 84 59H83ZM77 37V38C79.7614 38 82 40.2386 82 43H83H84C84 39.134 80.866 36 77 36V37ZM47 37V36C43.134 36 40 39.134 40 43H41H42C42 40.2386 44.2386 38 47 38V37Z" fill="#A78BFA" fill-opacity="0.55" mask="url(#path-3-inside-2_52_1240)"/>
<g filter="url(#filter1_d_52_1240)">
<rect x="61" y="33" width="18" height="18" rx="9" fill="url(#paint2_radial_52_1240)"/>
</g>
</g>
<defs>
<filter id="filter0_di_52_1240" x="0" y="0" width="120" height="120" filterUnits="userSpaceOnUse" color-interpolation-filters="sRGB">
<feFlood flood-opacity="0" result="BackgroundImageFix"/>
<feColorMatrix in="SourceAlpha" type="matrix" values="0 0 0 0 0 0 0 0 0 0 0 0 0 0 0 0 0 0 127 0" result="hardAlpha"/>
<feOffset dy="10"/>
<feGaussianBlur stdDeviation="14"/>
<feComposite in2="hardAlpha" operator="out"/>
<feColorMatrix type="matrix" values="0 0 0 0 0.356863 0 0 0 0 0.129412 0 0 0 0 0.713726 0 0 0 0.12 0"/>
<feBlend mode="normal" in2="BackgroundImageFix" result="effect1_dropShadow_52_1240"/>
<feBlend mode="normal" in="SourceGraphic" in2="effect1_dropShadow_52_1240" result="shape"/>
<feColorMatrix in="SourceAlpha" type="matrix" values="0 0 0 0 0 0 0 0 0 0 0 0 0 0 0 0 0 0 127 0" result="hardAlpha"/>
<feMorphology radius="1" operator="erode" in="SourceAlpha" result="effect2_innerShadow_52_1240"/>
<feOffset dy="1"/>
<feComposite in2="hardAlpha" operator="arithmetic" k2="-1" k3="1"/>
<feColorMatrix type="matrix" values="0 0 0 0 1 0 0 0 0 1 0 0 0 0 1 0 0 0 0.95 0"/>
<feBlend mode="normal" in2="shape" result="effect2_innerShadow_52_1240"/>
</filter>
<clipPath id="bgblur_0_52_1240_clip_path" transform="translate(0 0)"><path d="M28 36C28 26.0589 36.0589 18 46 18H74C83.9411 18 92 26.0589 92 36V64C92 73.9411 83.9411 82 74 82H46C36.0589 82 28 73.9411 28 64V36Z"/>
</clipPath><filter id="filter1_d_52_1240" x="49" y="25" width="42" height="42" filterUnits="userSpaceOnUse" color-interpolation-filters="sRGB">
<feFlood flood-opacity="0" result="BackgroundImageFix"/>
<feColorMatrix in="SourceAlpha" type="matrix" values="0 0 0 0 0 0 0 0 0 0 0 0 0 0 0 0 0 0 127 0" result="hardAlpha"/>
<feOffset dy="4"/>
<feGaussianBlur stdDeviation="6"/>
<feComposite in2="hardAlpha" operator="out"/>
<feColorMatrix type="matrix" values="0 0 0 0 0.356863 0 0 0 0 0.129412 0 0 0 0 0.713726 0 0 0 0.38 0"/>
<feBlend mode="normal" in2="BackgroundImageFix" result="effect1_dropShadow_52_1240"/>
<feBlend mode="normal" in="SourceGraphic" in2="effect1_dropShadow_52_1240" result="shape"/>
</filter>
<linearGradient id="paint0_linear_52_1240" x1="34.4372" y1="13.4926" x2="85.5628" y2="86.5074" gradientUnits="userSpaceOnUse">
<stop stop-color="white" stop-opacity="0.82"/>
<stop offset="1" stop-color="#EDE9FE" stop-opacity="0.65"/>
</linearGradient>
<linearGradient id="paint1_linear_52_1240" x1="44.675" y1="33.2308" x2="80.2021" y2="67.8697" gradientUnits="userSpaceOnUse">
<stop stop-color="#F0F2F5"/>
<stop offset="1" stop-color="white"/>
</linearGradient>
<radialGradient id="paint2_radial_52_1240" cx="0" cy="0" r="1" gradientUnits="userSpaceOnUse" gradientTransform="translate(66.4 38.4) scale(17.8191)">
<stop stop-color="#C4B5FD"/>
<stop offset="1" stop-color="#6D28D9"/>
</radialGradient>
</defs>
</svg>
