<svg width="64" height="64" viewBox="0 0 64 64" fill="none" xmlns="http://www.w3.org/2000/svg">
<rect x="0.5" y="0.5" width="63" height="63" rx="17.5" fill="url(#paint0_linear_64_7906)" stroke="white"/>
<mask id="path-2-inside-1_64_7906" fill="white">
<path d="M10 21C10 17.6863 12.6863 15 16 15H48C51.3137 15 54 17.6863 54 21V43C54 46.3137 51.3137 49 48 49H16C12.6863 49 10 46.3137 10 43V21Z"/>
</mask>
<g filter="url(#filter0_i_64_7906)">
<path d="M10 21C10 17.6863 12.6863 15 16 15H48C51.3137 15 54 17.6863 54 21V43C54 46.3137 51.3137 49 48 49H16C12.6863 49 10 46.3137 10 43V21Z" fill="url(#paint1_linear_64_7906)"/>
</g>
<path d="M16 15V17H48V15V13H16V15ZM54 21H52V43H54H56V21H54ZM48 49V47H16V49V51H48V49ZM10 43H12V21H10H8V43H10ZM16 49V47C13.7909 47 12 45.2091 12 43H10H8C8 47.4183 11.5817 51 16 51V49ZM54 43H52C52 45.2091 50.2091 47 48 47V49V51C52.4183 51 56 47.4183 56 43H54ZM48 15V17C50.2091 17 52 18.7909 52 21H54H56C56 16.5817 52.4183 13 48 13V15ZM16 15V13C11.5817 13 8 16.5817 8 21H10H12C12 18.7909 13.7909 17 16 17V15Z" fill="#94A3B8" mask="url(#path-2-inside-1_64_7906)"/>
<rect x="20" y="22" width="18" height="18" rx="1" fill="#7C3AED"/>
<defs>
<filter id="filter0_i_64_7906" x="10" y="13" width="44" height="36" filterUnits="userSpaceOnUse" color-interpolation-filters="sRGB">
<feFlood flood-opacity="0" result="BackgroundImageFix"/>
<feBlend mode="normal" in="SourceGraphic" in2="BackgroundImageFix" result="shape"/>
<feColorMatrix in="SourceAlpha" type="matrix" values="0 0 0 0 0 0 0 0 0 0 0 0 0 0 0 0 0 0 127 0" result="hardAlpha"/>
<feMorphology radius="2" operator="erode" in="SourceAlpha" result="effect1_innerShadow_64_7906"/>
<feOffset dy="-7"/>
<feComposite in2="hardAlpha" operator="arithmetic" k2="-1" k3="1"/>
<feColorMatrix type="matrix" values="0 0 0 0 0.0588235 0 0 0 0 0.0901961 0 0 0 0 0.164706 0 0 0 0.05 0"/>
<feBlend mode="normal" in2="shape" result="effect1_innerShadow_64_7906"/>
</filter>
<linearGradient id="paint0_linear_64_7906" x1="4" y1="3" x2="60.5" y2="64" gradientUnits="userSpaceOnUse">
<stop stop-color="white" stop-opacity="0.82"/>
<stop offset="1" stop-color="#EDE9FE" stop-opacity="0.65"/>
</linearGradient>
<linearGradient id="paint1_linear_64_7906" x1="32" y1="15" x2="32" y2="49" gradientUnits="userSpaceOnUse">
<stop stop-color="#F8FAFC"/>
<stop offset="1" stop-color="#CBD5E1"/>
</linearGradient>
</defs>
</svg>
