<svg width="70" height="69" viewBox="0 0 70 69" fill="none" xmlns="http://www.w3.org/2000/svg">
<rect x="3.5" y="0.5" width="63" height="63" rx="17.5" fill="url(#paint0_linear_64_7889)" stroke="white"/>
<g filter="url(#filter0_d_64_7889)">
<mask id="path-2-inside-1_64_7889" fill="white">
<path d="M16 27C16 21.4772 20.4772 17 26 17H44C49.5228 17 54 21.4772 54 27V37C54 42.5228 49.5228 47 44 47H20C17.7909 47 16 45.2091 16 43V27Z"/>
</mask>
<path d="M16 27C16 21.4772 20.4772 17 26 17H44C49.5228 17 54 21.4772 54 27V37C54 42.5228 49.5228 47 44 47H20C17.7909 47 16 45.2091 16 43V27Z" fill="url(#paint1_linear_64_7889)" shape-rendering="crispEdges"/>
<path d="M26 17V18H44V17V16H26V17ZM54 27H53V37H54H55V27H54ZM44 47V46H20V47V48H44V47ZM16 43H17V27H16H15V43H16ZM20 47V46C18.3431 46 17 44.6569 17 43H16H15C15 45.7614 17.2386 48 20 48V47ZM54 37H53C53 41.9706 48.9706 46 44 46V47V48C50.0751 48 55 43.0751 55 37H54ZM44 17V18C48.9706 18 53 22.0294 53 27H54H55C55 20.9249 50.0751 16 44 16V17ZM26 17V16C19.9249 16 15 20.9249 15 27H16H17C17 22.0294 21.0294 18 26 18V17Z" fill="#C4B5FD" fill-opacity="0.85" mask="url(#path-2-inside-1_64_7889)"/>
</g>
<g filter="url(#filter1_dd_64_7889)">
<rect x="24" y="27" width="22" height="6" rx="3" fill="url(#paint2_linear_64_7889)"/>
</g>
<defs>
<filter id="filter0_d_64_7889" x="0" y="7" width="70" height="62" filterUnits="userSpaceOnUse" color-interpolation-filters="sRGB">
<feFlood flood-opacity="0" result="BackgroundImageFix"/>
<feColorMatrix in="SourceAlpha" type="matrix" values="0 0 0 0 0 0 0 0 0 0 0 0 0 0 0 0 0 0 127 0" result="hardAlpha"/>
<feOffset dy="6"/>
<feGaussianBlur stdDeviation="8"/>
<feComposite in2="hardAlpha" operator="out"/>
<feColorMatrix type="matrix" values="0 0 0 0 0.486275 0 0 0 0 0.227451 0 0 0 0 0.929412 0 0 0 0.14 0"/>
<feBlend mode="normal" in2="BackgroundImageFix" result="effect1_dropShadow_64_7889"/>
<feBlend mode="normal" in="SourceGraphic" in2="effect1_dropShadow_64_7889" result="shape"/>
</filter>
<filter id="filter1_dd_64_7889" x="24" y="27" width="42" height="6" filterUnits="userSpaceOnUse" color-interpolation-filters="sRGB">
<feFlood flood-opacity="0" result="BackgroundImageFix"/>
<feColorMatrix in="SourceAlpha" type="matrix" values="0 0 0 0 0 0 0 0 0 0 0 0 0 0 0 0 0 0 127 0" result="hardAlpha"/>
<feOffset dx="20"/>
<feComposite in2="hardAlpha" operator="out"/>
<feColorMatrix type="matrix" values="0 0 0 0 0.486275 0 0 0 0 0.227451 0 0 0 0 0.929412 0 0 0 1 0"/>
<feBlend mode="normal" in2="BackgroundImageFix" result="effect1_dropShadow_64_7889"/>
<feColorMatrix in="SourceAlpha" type="matrix" values="0 0 0 0 0 0 0 0 0 0 0 0 0 0 0 0 0 0 127 0" result="hardAlpha"/>
<feOffset dx="10"/>
<feComposite in2="hardAlpha" operator="out"/>
<feColorMatrix type="matrix" values="0 0 0 0 0.768627 0 0 0 0 0.709804 0 0 0 0 0.992157 0 0 0 1 0"/>
<feBlend mode="normal" in2="effect1_dropShadow_64_7889" result="effect2_dropShadow_64_7889"/>
<feBlend mode="normal" in="SourceGraphic" in2="effect2_dropShadow_64_7889" result="shape"/>
</filter>
<linearGradient id="paint0_linear_64_7889" x1="7" y1="3" x2="63.5" y2="64" gradientUnits="userSpaceOnUse">
<stop stop-color="white" stop-opacity="0.82"/>
<stop offset="1" stop-color="#EDE9FE" stop-opacity="0.65"/>
</linearGradient>
<linearGradient id="paint1_linear_64_7889" x1="35" y1="17" x2="35" y2="47" gradientUnits="userSpaceOnUse">
<stop stop-color="white" stop-opacity="0.95"/>
<stop offset="1" stop-color="#EDE9FE" stop-opacity="0.92"/>
</linearGradient>
<linearGradient id="paint2_linear_64_7889" x1="24" y1="30" x2="46" y2="30" gradientUnits="userSpaceOnUse">
<stop stop-color="#7C3AED"/>
<stop offset="0.5" stop-color="#A78BFA"/>
<stop offset="1" stop-color="#7C3AED"/>
</linearGradient>
</defs>
</svg>
