<svg width="120" height="120" viewBox="0 0 120 120" fill="none" xmlns="http://www.w3.org/2000/svg">
<foreignObject x="0" y="0" width="120" height="120"><div xmlns="http://www.w3.org/1999/xhtml" style="backdrop-filter:blur(5px);clip-path:url(#bgblur_0_52_1230_clip_path);height:100%;width:100%"></div></foreignObject><g filter="url(#filter0_di_52_1230)" data-figma-bg-blur-radius="10">
<mask id="path-1-inside-1_52_1230" fill="white">
<path d="M28 36C28 26.0589 36.0589 18 46 18H74C83.9411 18 92 26.0589 92 36V64C92 73.9411 83.9411 82 74 82H46C36.0589 82 28 73.9411 28 64V36Z"/>
</mask>
<path d="M28 36C28 26.0589 36.0589 18 46 18H74C83.9411 18 92 26.0589 92 36V64C92 73.9411 83.9411 82 74 82H46C36.0589 82 28 73.9411 28 64V36Z" fill="url(#paint0_linear_52_1230)" shape-rendering="crispEdges"/>
<path d="M46 18V19H74V18V17H46V18ZM92 36H91V64H92H93V36H92ZM74 82V81H46V82V83H74V82ZM28 64H29V36H28H27V64H28ZM46 82V81C36.6112 81 29 73.3888 29 64H28H27C27 74.4934 35.5066 83 46 83V82ZM92 64H91C91 73.3888 83.3888 81 74 81V82V83C84.4934 83 93 74.4934 93 64H92ZM74 18V19C83.3888 19 91 26.6112 91 36H92H93C93 25.5066 84.4934 17 74 17V18ZM46 18V17C35.5066 17 27 25.5066 27 36H28H29C29 26.6112 36.6112 19 46 19V18Z" fill="white" fill-opacity="0.95" mask="url(#path-1-inside-1_52_1230)"/>
<g filter="url(#filter1_d_52_1230)">
<mask id="path-3-inside-2_52_1230" fill="white">
<path d="M43 41C43 35.4772 47.4772 31 53 31H71C76.5228 31 81 35.4772 81 41V51C81 56.5228 76.5228 61 71 61H47C44.7909 61 43 59.2091 43 57V41Z"/>
</mask>
<path d="M43 41C43 35.4772 47.4772 31 53 31H71C76.5228 31 81 35.4772 81 41V51C81 56.5228 76.5228 61 71 61H47C44.7909 61 43 59.2091 43 57V41Z" fill="url(#paint1_linear_52_1230)" shape-rendering="crispEdges"/>
<path d="M53 31V32H71V31V30H53V31ZM81 41H80V51H81H82V41H81ZM71 61V60H47V61V62H71V61ZM43 57H44V41H43H42V57H43ZM47 61V60C45.3431 60 44 58.6569 44 57H43H42C42 59.7614 44.2386 62 47 62V61ZM81 51H80C80 55.9706 75.9706 60 71 60V61V62C77.0751 62 82 57.0751 82 51H81ZM71 31V32C75.9706 32 80 36.0294 80 41H81H82C82 34.9249 77.0751 30 71 30V31ZM53 31V30C46.9249 30 42 34.9249 42 41H43H44C44 36.0294 48.0294 32 53 32V31Z" fill="#C4B5FD" fill-opacity="0.85" mask="url(#path-3-inside-2_52_1230)"/>
</g>
<g filter="url(#filter2_dd_52_1230)">
<rect x="51" y="41" width="22" height="6" rx="3" fill="url(#paint2_linear_52_1230)"/>
</g>
</g>
<defs>
<filter id="filter0_di_52_1230" x="0" y="0" width="120" height="120" filterUnits="userSpaceOnUse" color-interpolation-filters="sRGB">
<feFlood flood-opacity="0" result="BackgroundImageFix"/>
<feColorMatrix in="SourceAlpha" type="matrix" values="0 0 0 0 0 0 0 0 0 0 0 0 0 0 0 0 0 0 127 0" result="hardAlpha"/>
<feOffset dy="10"/>
<feGaussianBlur stdDeviation="14"/>
<feComposite in2="hardAlpha" operator="out"/>
<feColorMatrix type="matrix" values="0 0 0 0 0.356863 0 0 0 0 0.129412 0 0 0 0 0.713726 0 0 0 0.12 0"/>
<feBlend mode="normal" in2="BackgroundImageFix" result="effect1_dropShadow_52_1230"/>
<feBlend mode="normal" in="SourceGraphic" in2="effect1_dropShadow_52_1230" result="shape"/>
<feColorMatrix in="SourceAlpha" type="matrix" values="0 0 0 0 0 0 0 0 0 0 0 0 0 0 0 0 0 0 127 0" result="hardAlpha"/>
<feMorphology radius="1" operator="erode" in="SourceAlpha" result="effect2_innerShadow_52_1230"/>
<feOffset dy="1"/>
<feComposite in2="hardAlpha" operator="arithmetic" k2="-1" k3="1"/>
<feColorMatrix type="matrix" values="0 0 0 0 1 0 0 0 0 1 0 0 0 0 1 0 0 0 0.95 0"/>
<feBlend mode="normal" in2="shape" result="effect2_innerShadow_52_1230"/>
</filter>
<clipPath id="bgblur_0_52_1230_clip_path" transform="translate(0 0)"><path d="M28 36C28 26.0589 36.0589 18 46 18H74C83.9411 18 92 26.0589 92 36V64C92 73.9411 83.9411 82 74 82H46C36.0589 82 28 73.9411 28 64V36Z"/>
</clipPath><filter id="filter1_d_52_1230" x="27" y="21" width="70" height="62" filterUnits="userSpaceOnUse" color-interpolation-filters="sRGB">
<feFlood flood-opacity="0" result="BackgroundImageFix"/>
<feColorMatrix in="SourceAlpha" type="matrix" values="0 0 0 0 0 0 0 0 0 0 0 0 0 0 0 0 0 0 127 0" result="hardAlpha"/>
<feOffset dy="6"/>
<feGaussianBlur stdDeviation="8"/>
<feComposite in2="hardAlpha" operator="out"/>
<feColorMatrix type="matrix" values="0 0 0 0 0.486275 0 0 0 0 0.227451 0 0 0 0 0.929412 0 0 0 0.14 0"/>
<feBlend mode="normal" in2="BackgroundImageFix" result="effect1_dropShadow_52_1230"/>
<feBlend mode="normal" in="SourceGraphic" in2="effect1_dropShadow_52_1230" result="shape"/>
</filter>
<filter id="filter2_dd_52_1230" x="51" y="41" width="42" height="6" filterUnits="userSpaceOnUse" color-interpolation-filters="sRGB">
<feFlood flood-opacity="0" result="BackgroundImageFix"/>
<feColorMatrix in="SourceAlpha" type="matrix" values="0 0 0 0 0 0 0 0 0 0 0 0 0 0 0 0 0 0 127 0" result="hardAlpha"/>
<feOffset dx="20"/>
<feComposite in2="hardAlpha" operator="out"/>
<feColorMatrix type="matrix" values="0 0 0 0 0.486275 0 0 0 0 0.227451 0 0 0 0 0.929412 0 0 0 1 0"/>
<feBlend mode="normal" in2="BackgroundImageFix" result="effect1_dropShadow_52_1230"/>
<feColorMatrix in="SourceAlpha" type="matrix" values="0 0 0 0 0 0 0 0 0 0 0 0 0 0 0 0 0 0 127 0" result="hardAlpha"/>
<feOffset dx="10"/>
<feComposite in2="hardAlpha" operator="out"/>
<feColorMatrix type="matrix" values="0 0 0 0 0.768627 0 0 0 0 0.709804 0 0 0 0 0.992157 0 0 0 1 0"/>
<feBlend mode="normal" in2="effect1_dropShadow_52_1230" result="effect2_dropShadow_52_1230"/>
<feBlend mode="normal" in="SourceGraphic" in2="effect2_dropShadow_52_1230" result="shape"/>
</filter>
<linearGradient id="paint0_linear_52_1230" x1="34.4372" y1="13.4926" x2="85.5628" y2="86.5074" gradientUnits="userSpaceOnUse">
<stop stop-color="white" stop-opacity="0.82"/>
<stop offset="1" stop-color="#EDE9FE" stop-opacity="0.65"/>
</linearGradient>
<linearGradient id="paint1_linear_52_1230" x1="62" y1="31" x2="62" y2="61" gradientUnits="userSpaceOnUse">
<stop stop-color="white" stop-opacity="0.95"/>
<stop offset="1" stop-color="#EDE9FE" stop-opacity="0.92"/>
</linearGradient>
<linearGradient id="paint2_linear_52_1230" x1="51" y1="44" x2="73" y2="44" gradientUnits="userSpaceOnUse">
<stop stop-color="#7C3AED"/>
<stop offset="0.5" stop-color="#A78BFA"/>
<stop offset="1" stop-color="#7C3AED"/>
</linearGradient>
</defs>
</svg>
