<svg width="20" height="14" viewBox="0 0 20 14" fill="none" xmlns="http://www.w3.org/2000/svg">
<path d="M19.5583 2.18361C19.4436 1.76155 19.2198 1.37678 18.9093 1.0676C18.5987 0.75842 18.2122 0.535625 17.7883 0.4214C16.2363 0 9.98986 0 9.98986 0C9.98986 0 3.74314 0.0127555 2.19111 0.434156C1.76716 0.548388 1.38067 0.771195 1.07013 1.08039C0.759581 1.38958 0.535813 1.77437 0.421109 2.19644C-0.0483444 4.94184 -0.230454 9.1252 0.433999 11.7608C0.548716 12.1828 0.772489 12.5676 1.08303 12.8768C1.39358 13.186 1.78006 13.4088 2.204 13.523C3.75603 13.9444 10.0026 13.9444 10.0026 13.9444C10.0026 13.9444 16.2491 13.9444 17.801 13.523C18.225 13.4088 18.6115 13.186 18.922 12.8768C19.2326 12.5676 19.4564 12.1828 19.5711 11.7608C20.0663 9.01149 20.2188 4.8307 19.5583 2.18361Z" fill="#FF0000"/>
<path d="M8.00195 9.96051L13.1838 6.97244L8.00195 3.98438V9.96051Z" fill="white"/>
</svg>
