<svg xmlns="http://www.w3.org/2000/svg" width="1200" height="750" viewBox="0 0 1200 750">
  <rect width="1200" height="750" fill="#f7f6f2"/>
  <rect width="310" height="750" fill="#f7f6f2"/>
  <path d="M310 0 V750" stroke="#d7d5cf"/>
  <g font-family="Arial,sans-serif" fill="#272820">
    <text x="32" y="70" font-size="37" font-weight="800" letter-spacing="-2">INDEX<tspan font-size="14" dx="4" dy="-16">Æ</tspan></text>
    <circle cx="40" cy="168" r="4" fill="#879947"/>
    <text x="52" y="172" font-size="9" letter-spacing=".7">AVAILABLE FOR SELECT PROJECTS</text>
    <text x="32" y="230" font-size="26" font-weight="550">.</text>
    <text x="32" y="266" font-size="26" font-weight="550">›D ‹\</text>
    <text x="32" y="302" font-size="26" font-weight="550">Ã‹î êt.</text>
    <text x="32" y="350" fill="#7e7e74" font-size="13">ú‹X ´x¡Ä0</text>
    <text x="32" y="372" fill="#7e7e74" font-size="13">Tt ç ë@ ΩÿL¿.</text>
    <text x="32" y="430" fill="#ec5a36" font-size="13">Selected work</text>
    <text x="250" y="430" fill="#ec5a36" font-size="11">04</text>
    <text x="32" y="462" font-size="13">A little about me</text>
    <text x="32" y="494" font-size="13">Lets talk</text>
    <text x="32" y="700" font-size="10" letter-spacing=".5">INDEPENDENT DESIGNER</text>
    <text x="32" y="718" font-size="10" letter-spacing=".5">BASED IN SEOUL, KR</text>
  </g>
  <path d="M310 72 H1200" stroke="#d7d5cf"/>
  <g font-family="Arial,sans-serif" fill="#272820">
    <text x="360" y="48" font-size="11" letter-spacing="1.2">PORTFOLIO  VOL. 026</text>
    <text x="860" y="48" font-size="11" letter-spacing="1.2">GOOD DESIGN, WITH A POINT OF VIEW.</text>
    <text x="360" y="130" font-size="10" letter-spacing="1.5">A COLLECTION OF THOUGHTFUL THINGS</text>
    <text x="360" y="240" font-size="92" font-weight="400" letter-spacing="-6">Selected</text>
    <text x="360" y="330" font-size="92" font-weight="400" letter-spacing="-6" font-style="italic">work.<tspan font-size="22" font-style="normal" dy="-48"> (04)</tspan></text>
    <text x="360" y="390" font-size="14">All</text>
    <text x="430" y="390" fill="#9a9a90" font-size="14">Brand</text>
    <text x="520" y="390" fill="#9a9a90" font-size="14">Digital</text>
    <text x="620" y="390" fill="#9a9a90" font-size="14">Editorial</text>
    <text x="1080" y="390" fill="#9a9a90" font-size="12">2025  2026</text>
  </g>
  <rect x="360" y="430" width="780" height="1" fill="#d7d5cf"/>
  <g font-family="Arial,sans-serif" fill="#272820">
    <text x="360" y="490" font-size="13" fill="#9a9a90">01</text>
    <text x="430" y="490" font-size="22">FORMA Atelier</text>
    <text x="1080" y="490" font-size="13">2026</text>
    <rect x="360" y="520" width="780" height="1" fill="#d7d5cf"/>
    <text x="360" y="575" font-size="13" fill="#9a9a90">02</text>
    <text x="430" y="575" font-size="22">NORTH Archive</text>
    <text x="1080" y="575" font-size="13">2026</text>
    <rect x="360" y="605" width="780" height="1" fill="#d7d5cf"/>
    <text x="360" y="660" font-size="13" fill="#9a9a90">03</text>
    <text x="430" y="660" font-size="22">PULSE Editorial</text>
    <text x="1080" y="660" font-size="13">2025</text>
    <rect x="360" y="690" width="780" height="1" fill="#d7d5cf"/>
  </g>
</svg>
